# xmcd
#
# Track frame offsets:
#	150
#	17775
#	40877
#	56822
#	72602
#	89890
#	106512
#	134282
#	150935
#	173685
#	194052
#	210440
#
# Disc length: 3127 seconds
# Revision: 7
# Processed by: cddbd v1.5.2PL0 Copyright (c) Steve Scherf et al.
# Submitted via: dBpowerAMP V12.0
#
DISCID=a60c350c
DTITLE=Various Artist - Pickin' on Zeppelin: A Tribute
DYEAR=2000
DGENRE=Bluegrass
TTITLE0=D'Yer Mak'er
TTITLE1=Kashmir
TTITLE2=Ramble On
TTITLE3=Black Dog
TTITLE4=Babe I'm Gonna Leave You
TTITLE5=Going to California
TTITLE6=No Quarter
TTITLE7=The Song Remains the Same
TTITLE8=All My Love
TTITLE9=The Battle of Evermore
TTITLE10=Rock and Roll
TTITLE11=Stairway to Heaven
EXTD=
EXTT0=
EXTT1=
EXTT2=
EXTT3=
EXTT4=
EXTT5=
EXTT6=
EXTT7=
EXTT8=
EXTT9=
EXTT10=
EXTT11=
PLAYORDER=
